<svg width="32" height="24" viewBox="0 0 32 24" fill="none" xmlns="http://www.w3.org/2000/svg">
<rect width="32" height="24" rx="4" fill="#FFF48D"/>
<path d="M9.28854 2.93802V13.2779C9.28854 13.7729 9.69562 14.1777 10.1929 14.1777H16.4006C21.0938 14.1777 23.1276 11.5632 23.1276 8.09432C23.1276 4.62545 21.093 2.03821 16.3999 2.03821H10.1921C9.69486 2.03821 9.28778 2.44301 9.28778 2.93802H9.28854Z" fill="white"/>
<path d="M13.4435 4.57622V12.2167H16.7842C19.818 12.2167 21.1332 10.511 21.1332 8.09967C21.1332 5.68829 19.8172 4.00085 16.7842 4.00085H14.0219C13.7012 4.00085 13.4435 4.26163 13.4435 4.57698V4.57622Z" fill="#CC0066"/>
<path fill-rule="evenodd" clip-rule="evenodd" d="M11.0018 13.3545H16.3999C20.1932 13.3545 22.2862 11.4874 22.2862 8.09886C22.2862 6.14611 21.5221 2.866 16.3999 2.866H11.0018C10.5227 2.866 10.1338 3.25261 10.1338 3.73018V12.491C10.1338 12.9679 10.5227 13.3552 11.0018 13.3552V13.3545ZM10.4226 3.73018C10.4226 3.41104 10.6803 3.15406 11.001 3.15406H16.3991C18.4876 3.15406 21.9959 3.79765 21.9959 8.09886C21.9959 11.3024 20.0067 13.0664 16.3991 13.0664H11.001C10.6803 13.0664 10.4226 12.8102 10.4226 12.4903V3.73018Z" fill="#232323"/>
<path fill-rule="evenodd" clip-rule="evenodd" d="M15.0877 6.98836C14.9861 6.95197 14.88 6.93378 14.7648 6.93378V6.92923H13.9999V8.77434H14.7739C14.9111 8.77434 15.0301 8.74705 15.1317 8.70157C15.2332 8.65153 15.3174 8.58786 15.3841 8.50599C15.4508 8.42412 15.4993 8.32405 15.5342 8.21035C15.5653 8.09664 15.5827 7.97383 15.5827 7.83738C15.5827 7.68274 15.5607 7.55084 15.5205 7.43713C15.4766 7.32797 15.419 7.23245 15.3485 7.15513C15.2734 7.08236 15.1893 7.02323 15.0877 6.98684V6.98836ZM14.9058 8.41123C14.8481 8.42942 14.7951 8.43852 14.7375 8.43852V8.44307H14.388V7.27945H14.6708C14.7678 7.27945 14.8474 7.2931 14.9141 7.32039C14.9808 7.34768 15.0331 7.39316 15.0733 7.44319C15.1135 7.49322 15.1438 7.56145 15.162 7.63422C15.1794 7.707 15.1885 7.79341 15.1885 7.88438C15.1885 7.98899 15.1749 8.07086 15.1491 8.14364C15.1226 8.21641 15.0869 8.27099 15.0475 8.31647C15.0073 8.36196 14.9588 8.3938 14.9058 8.41199V8.41123Z" fill="white"/>
<path d="M17.1792 6.93443V7.27555H16.2324V7.67126H17.1034V7.98509H16.2324V8.43538H17.2012V8.77651H15.8389V6.9314H17.1792V6.93594V6.93443Z" fill="white"/>
<path fill-rule="evenodd" clip-rule="evenodd" d="M19.2047 8.77959L18.5323 6.93448H18.1207L17.4437 8.77959H17.8417L17.9835 8.37024H18.6559L18.7931 8.77959H19.2047ZM18.3291 7.38856L18.555 8.0655H18.0903L18.3246 7.38856H18.3291Z" fill="white"/>
<path d="M19.846 6.93378V8.43852H20.7216V8.77964H19.4526V6.93453H19.846V6.93378Z" fill="white"/>
<path d="M11.891 8.80696C12.3701 8.80696 12.7582 8.41884 12.7582 7.93899C12.7582 7.45914 12.3701 7.07101 11.891 7.07101C11.4119 7.07101 11.0238 7.45914 11.0238 7.93899C11.0238 8.41884 11.4119 8.80696 11.891 8.80696Z" fill="#232323"/>
<path d="M12.4071 12.278C11.7355 12.278 11.1973 11.6981 11.1973 10.9855V9.97656C11.1973 9.62028 11.4664 9.32767 11.8045 9.32767C12.1426 9.32767 12.4117 9.61573 12.4117 9.97656V12.278H12.4071Z" fill="#232323"/>
<path d="M24.5626 16.2896H7.88538C7.80199 16.2896 7.73376 16.2214 7.73376 16.138C7.73376 16.0546 7.80199 15.9864 7.88538 15.9864H24.5626C24.646 15.9864 24.7142 16.0546 24.7142 16.138C24.7142 16.2214 24.646 16.2896 24.5626 16.2896Z" fill="#1D1C1C"/>
<path d="M20.5888 20.0617C20.5888 19.0474 21.3105 18.1234 22.5567 18.1234C23.803 18.1234 24.5299 19.0482 24.5299 20.0617C24.5299 21.0752 23.8083 22.0001 22.5567 22.0001C21.3105 22.0001 20.5888 21.0752 20.5888 20.0617ZM23.4346 20.0617C23.4346 19.5728 23.1124 19.1217 22.5567 19.1217C22.0011 19.1217 21.6789 19.5735 21.6789 20.0617C21.6789 20.5499 22.0064 21.0025 22.5567 21.0025C23.1071 21.0025 23.4346 20.5506 23.4346 20.0617Z" fill="#1D1C1C"/>
<path d="M19.8225 20.7819C20.2379 20.5454 20.4873 20.0936 20.4873 19.5948C20.4873 18.8542 19.9521 18.2234 19.1213 18.2234H17.377V21.9008H18.4572V20.9608H18.6596L19.2775 21.9008H20.5495L19.8225 20.7819ZM18.9037 20.1148H18.4572V19.0747H18.909C19.2001 19.0747 19.3866 19.3113 19.3866 19.5948C19.3866 19.8783 19.1941 20.1148 18.9037 20.1148Z" fill="#1D1C1C"/>
<path d="M12.4465 18.2196L11.7984 20.4112L11.1662 18.2196H10.3058L9.66826 20.4112L9.02543 18.2196H7.88531L9.19145 21.8901H10.1299L10.7364 19.8919L11.3375 21.8901H12.2805L13.5867 18.2196H12.4465Z" fill="#1D1C1C"/>
<path d="M15.2212 20.9934H15.2181C14.8141 20.9934 14.5306 20.7493 14.4093 20.4263H17.1542C17.1762 20.3051 17.1875 20.1807 17.1875 20.0549C17.1875 19.0436 16.4682 18.1211 15.2204 18.1203V19.1164C15.6267 19.1172 15.9072 19.3613 16.0277 19.6834H13.2866C13.2646 19.8047 13.2532 19.9291 13.2532 20.0549C13.2532 21.0669 13.9734 21.9902 15.2174 21.9902H15.2204V20.9934H15.2212Z" fill="#1D1C1C"/>
<path d="M15.2181 21.9894C15.2605 21.9894 15.3015 21.9879 15.3431 21.9864C15.5956 21.9735 15.8253 21.922 16.0299 21.8393C16.2346 21.756 16.4143 21.6423 16.5666 21.5043C16.719 21.3663 16.8456 21.2049 16.9434 21.0267C17.0321 20.8652 17.0973 20.6894 17.1382 20.5067H15.9943C15.9708 20.5552 15.9435 20.6022 15.9124 20.6454C15.87 20.7053 15.82 20.7591 15.7631 20.8054C15.7063 20.8524 15.6426 20.8918 15.5728 20.9221C15.5023 20.9524 15.4265 20.9736 15.3439 20.985C15.3037 20.9903 15.262 20.9934 15.2188 20.9934C14.9611 20.9934 14.7534 20.8941 14.6048 20.7386L13.8611 21.4906C14.1917 21.7961 14.6503 21.9887 15.2188 21.9887L15.2181 21.9894Z" fill="url(#paint0_linear_2740_2223)"/>
<path d="M15.218 18.1195C14.1628 18.1195 13.4843 18.7836 13.3032 19.6023H14.4433C14.5797 19.3203 14.8481 19.1156 15.218 19.1156C15.5129 19.1156 15.7418 19.2429 15.8912 19.4355L16.6416 18.6767C16.3066 18.3371 15.8245 18.1195 15.2188 18.1195H15.218Z" fill="url(#paint1_linear_2740_2223)"/>
<defs>
<linearGradient id="paint0_linear_2740_2223" x1="16.5803" y1="19.8404" x2="14.8739" y2="21.9303" gradientUnits="userSpaceOnUse">
<stop offset="0.02" stop-color="#1D1C1C" stop-opacity="0"/>
<stop offset="0.68" stop-color="#1D1C1C"/>
</linearGradient>
<linearGradient id="paint1_linear_2740_2223" x1="13.6034" y1="20.2838" x2="15.3529" y2="18.5546" gradientUnits="userSpaceOnUse">
<stop offset="0.02" stop-color="#1D1C1C" stop-opacity="0"/>
<stop offset="0.68" stop-color="#1D1C1C"/>
</linearGradient>
</defs>
</svg>
